<?xml version="1.0" encoding="UTF-8" standalone="no"?>
<!-- Created with Inkscape (http://www.inkscape.org/) -->

<svg
   xmlns:dc="http://purl.org/dc/elements/1.1/"
   xmlns:cc="http://creativecommons.org/ns#"
   xmlns:rdf="http://www.w3.org/1999/02/22-rdf-syntax-ns#"
   xmlns:svg="http://www.w3.org/2000/svg"
   xmlns="http://www.w3.org/2000/svg"
   xmlns:sodipodi="http://sodipodi.sourceforge.net/DTD/sodipodi-0.dtd"
   xmlns:inkscape="http://www.inkscape.org/namespaces/inkscape"
   width="512"
   height="512"
   viewBox="0 0 512.00033 512.00033"
   version="1.1"
   id="svg8"
   inkscape:version="0.92.4 (5da689c313, 2019-01-14)"
   sodipodi:docname="cat.svg">
  <defs
     id="defs2">
    <inkscape:path-effect
       effect="mirror_symmetry"
       start_point="256.12517,304.15836"
       end_point="256.12517,331.75814"
       center_point="256.12517,317.95825"
       id="path-effect1077"
       is_visible="true"
       mode="free"
       discard_orig_path="false"
       fuse_paths="false"
       oposite_fuse="false" />
    <inkscape:path-effect
       effect="mirror_symmetry"
       start_point="257.72584,176.76457"
       end_point="257.72584,621.3622"
       center_point="257.72584,399.06339"
       id="path-effect1041"
       is_visible="true"
       mode="vertical"
       discard_orig_path="false"
       fuse_paths="false"
       oposite_fuse="false" />
    <inkscape:path-effect
       effect="mirror_symmetry"
       start_point="256.00016,161.53336"
       end_point="256.00016,673.53369"
       center_point="256.00016,417.53352"
       id="path-effect1035"
       is_visible="true"
       mode="vertical"
       discard_orig_path="false"
       fuse_paths="false"
       oposite_fuse="false" />
    <inkscape:path-effect
       effect="mirror_symmetry"
       start_point="256.00016,303.36287"
       end_point="256.00016,331.64723"
       center_point="256.00016,317.50505"
       id="path-effect1004"
       is_visible="true"
       mode="free"
       discard_orig_path="false"
       fuse_paths="false"
       oposite_fuse="false" />
    <inkscape:path-effect
       effect="mirror_symmetry"
       start_point="256.00016,161.53336"
       end_point="256.00016,673.53369"
       center_point="256.00016,417.53352"
       id="path-effect868"
       is_visible="true"
       mode="vertical"
       discard_orig_path="false"
       fuse_paths="false"
       oposite_fuse="false" />
    <inkscape:path-effect
       effect="mirror_symmetry"
       start_point="256.00016,161.53336"
       end_point="256.00016,673.53369"
       center_point="256.00016,417.53352"
       id="path-effect858"
       is_visible="true"
       mode="vertical"
       discard_orig_path="false"
       fuse_paths="false"
       oposite_fuse="false" />
    <inkscape:path-effect
       effect="mirror_symmetry"
       start_point="256.00016,161.53336"
       end_point="256.00016,673.53369"
       center_point="256.00016,417.53352"
       id="path-effect842"
       is_visible="true"
       mode="vertical"
       discard_orig_path="false"
       fuse_paths="false"
       oposite_fuse="false" />
    <inkscape:path-effect
       effect="mirror_symmetry"
       start_point="256.00016,452.43076"
       end_point="256.00016,527.73764"
       center_point="256.00016,490.0842"
       id="path-effect907"
       is_visible="true"
       mode="free"
       discard_orig_path="false"
       fuse_paths="false"
       oposite_fuse="false" />
    <inkscape:path-effect
       effect="mirror_symmetry"
       start_point="256.00005,539.75846"
       end_point="256.00005,572.28536"
       center_point="256.00005,556.02191"
       id="path-effect899"
       is_visible="true"
       mode="free"
       discard_orig_path="false"
       fuse_paths="false"
       oposite_fuse="false" />
  </defs>
  <sodipodi:namedview
     id="base"
     pagecolor="#ffffff"
     bordercolor="#666666"
     borderopacity="1.0"
     inkscape:pageopacity="0.0"
     inkscape:pageshadow="2"
     inkscape:zoom="2.8284272"
     inkscape:cx="286.68232"
     inkscape:cy="366.36036"
     inkscape:document-units="mm"
     inkscape:current-layer="layer1"
     showgrid="false"
     units="px"
     fit-margin-top="0"
     fit-margin-left="0"
     fit-margin-right="0"
     fit-margin-bottom="0"
     showguides="true"
     inkscape:guide-bbox="true"
     inkscape:window-width="1920"
     inkscape:window-height="1017"
     inkscape:window-x="-8"
     inkscape:window-y="-8"
     inkscape:window-maximized="1"
     inkscape:snap-global="true"
     inkscape:object-paths="true"
     inkscape:snap-grids="false"
     inkscape:snap-bbox="false"
     inkscape:snap-nodes="true"
     inkscape:snap-intersection-paths="true"
     inkscape:object-nodes="true">
    <sodipodi:guide
       position="944.8825,0"
       orientation="1,0"
       id="guide881"
       inkscape:locked="false"
       inkscape:label=""
       inkscape:color="rgb(0,0,255)" />
    <sodipodi:guide
       position="256.00016,0"
       orientation="1,0"
       id="guide883"
       inkscape:locked="false"
       inkscape:label=""
       inkscape:color="rgb(0,0,255)" />
    <sodipodi:guide
       position="40,409.00033"
       orientation="0,372.99976"
       id="guide838"
       inkscape:locked="false" />
  </sodipodi:namedview>
  <metadata
     id="metadata5">
    <rdf:RDF>
      <cc:Work
         rdf:about="">
        <dc:format>image/svg+xml</dc:format>
        <dc:type
           rdf:resource="http://purl.org/dc/dcmitype/StillImage" />
        <dc:title />
      </cc:Work>
    </rdf:RDF>
  </metadata>
  <g
     inkscape:label="Layer 1"
     inkscape:groupmode="layer"
     id="layer1"
     transform="translate(0,-161.53336)">
    <path
       style="fill:#ffcc00;stroke:#000000;stroke-width:10.00000645;stroke-linecap:butt;stroke-linejoin:miter;stroke-opacity:1;stroke-miterlimit:4;stroke-dasharray:none"
       d="m 173.67436,264.53245 -22.70706,-70.77104 70.81782,37.2995 m 116.54085,33.47154 22.70706,-70.77104 -70.81782,37.2995"
       id="path840"
       inkscape:connector-curvature="0"
       inkscape:path-effect="#path-effect842"
       inkscape:original-d="m 173.67436,264.53245 -22.70706,-70.77104 70.81782,37.2995" />
    <ellipse
       style="fill:#ffcc00;fill-opacity:1;fill-rule:nonzero;stroke:#000000;stroke-width:10.00000645;stroke-linecap:round;stroke-linejoin:bevel;stroke-miterlimit:4;stroke-dasharray:none;stroke-opacity:1"
       id="path834"
       cx="256"
       cy="288.53336"
       rx="89.229134"
       ry="62.229126" />
    <ellipse
       style="fill:#ffcc00;fill-opacity:1;fill-rule:nonzero;stroke:#000000;stroke-width:10.00000645;stroke-linecap:round;stroke-linejoin:bevel;stroke-miterlimit:4;stroke-dasharray:none;stroke-opacity:1"
       id="path844"
       cx="256"
       cy="466.112"
       rx="72.152229"
       ry="113.13708" />
    <path
       id="path854"
       style="fill:#ffcc00;stroke:#000000;stroke-width:10.00000645;stroke-linecap:butt;stroke-linejoin:miter;stroke-opacity:1;stroke-miterlimit:4;stroke-dasharray:none"
       d="m 202.61037,406.60055 v 14.49569 m -9.21666,-9.54594 v 14.14213 m -12.37437,-15.20279 v 16.26345 m -10.25305,-22.27386 v 16.61701 M 213.664,401.39777 c 0,14.4494 -11.71355,26.16295 -26.16295,26.16295 -14.4494,0 -26.16295,-11.71355 -26.16295,-26.16295 0,-14.4494 11.71355,-26.16295 26.16295,-26.16295 14.4494,0 26.16295,11.71355 26.16295,26.16295 z m 95.72596,5.20278 v 14.49569 m 9.21666,-9.54594 v 14.14213 m 12.37437,-15.20279 v 16.26345 m 10.25305,-22.27386 v 16.61701 m -42.89771,-19.69847 c 0,14.4494 11.71355,26.16295 26.16295,26.16295 14.4494,0 26.16295,-11.71355 26.16295,-26.16295 0,-14.4494 -11.71355,-26.16295 -26.16295,-26.16295 -14.4494,0 -26.16295,11.71355 -26.16295,26.16295 z"
       inkscape:path-effect="#path-effect858"
       inkscape:original-d="m 202.61037,406.60055 v 14.49569 m -9.21666,-9.54594 v 14.14213 m -12.37437,-15.20279 v 16.26345 m -10.25305,-22.27386 v 16.61701 M 213.664,401.39777 a 26.162951,26.162951 0 0 1 -26.16295,26.16295 26.162951,26.162951 0 0 1 -26.16295,-26.16295 26.162951,26.162951 0 0 1 26.16295,-26.16295 26.162951,26.162951 0 0 1 26.16295,26.16295 z" />
    <path
       style="fill:#ffcc00;stroke:#000000;stroke-width:10.00000645;stroke-linecap:butt;stroke-linejoin:miter;stroke-opacity:1;stroke-miterlimit:4;stroke-dasharray:none"
       d="m 209.51035,552.63348 c 0,0 -39.80472,89.78718 -114.758041,86.25165 0,0 -18.384727,2.82873 -40.305052,-4.24234 -21.920324,-7.07107 -22.627431,-17.67768 -22.627431,-17.67768 0,0 -8.485287,-19.09189 9.899501,-7.77818 18.384788,11.31372 18.384788,10.60661 18.384788,10.60661 0,0 7.071073,9.19239 48.790395,5.65686 41.71933,-3.53554 93.05813,-84.38664 93.05813,-84.38664"
       id="path864"
       inkscape:connector-curvature="0" />
    <path
       style="fill:#ffcc00;fill-opacity:1;fill-rule:nonzero;stroke:#000000;stroke-width:10.00000645;stroke-linecap:round;stroke-linejoin:bevel;stroke-miterlimit:4;stroke-dasharray:none;stroke-opacity:1"
       id="path866"
       inkscape:path-effect="#path-effect868"
       sodipodi:type="arc"
       sodipodi:cx="211.88177"
       sodipodi:cy="561.11096"
       sodipodi:rx="15.806599"
       sodipodi:ry="28.983814"
       d="m 227.68837,561.11096 c 0,16.00732 -7.07685,28.98382 -15.8066,28.98382 -8.72974,0 -15.80659,-12.9765 -15.80659,-28.98382 0,-16.00732 7.07685,-28.98381 15.80659,-28.98381 8.72975,0 15.8066,12.97649 15.8066,28.98381 z m 56.62359,0 c 0,16.00732 7.07685,28.98382 15.8066,28.98382 8.72974,0 15.80659,-12.9765 15.80659,-28.98382 0,-16.00732 -7.07685,-28.98381 -15.80659,-28.98381 -8.72975,0 -15.8066,12.97649 -15.8066,28.98381 z" />
    <path
       style="fill:#ffcc00;fill-opacity:1;fill-rule:nonzero;stroke:#000000;stroke-width:10.00000645;stroke-linecap:round;stroke-linejoin:bevel;stroke-miterlimit:4;stroke-dasharray:none;stroke-opacity:1"
       id="path1033"
       inkscape:path-effect="#path-effect1035"
       sodipodi:type="arc"
       sodipodi:cx="213.75"
       sodipodi:cy="263.53336"
       sodipodi:rx="10.25"
       sodipodi:ry="13"
       d="m 224,263.53336 c 0,7.1797 -4.58908,13 -10.25,13 -5.66092,0 -10.25,-5.8203 -10.25,-13 0,-7.17971 4.58908,-13 10.25,-13 5.66092,0 10.25,5.82029 10.25,13 z m 64.00033,0 c 0,7.1797 4.58908,13 10.25,13 5.66092,0 10.25,-5.8203 10.25,-13 0,-7.17971 -4.58908,-13 -10.25,-13 -5.66092,0 -10.25,5.82029 -10.25,13 z" />
    <ellipse
       style="fill:#ffcc00;fill-opacity:1;fill-rule:nonzero;stroke:#000000;stroke-width:10.00000645;stroke-linecap:round;stroke-linejoin:bevel;stroke-miterlimit:4;stroke-dasharray:none;stroke-opacity:1"
       id="path1037"
       cx="256"
       cy="283.78336"
       rx="7.662715"
       ry="6.1627145" />
    <path
       style="fill:#ffcc00;fill-opacity:1;fill-rule:nonzero;stroke:#000000;stroke-width:12.23887788;stroke-linecap:round;stroke-linejoin:bevel;stroke-miterlimit:4;stroke-dasharray:none;stroke-opacity:1"
       id="path1039"
       inkscape:path-effect="#path-effect1041"
       sodipodi:type="arc"
       sodipodi:cx="251.09375"
       sodipodi:cy="282.81461"
       sodipodi:rx="2.40625"
       sodipodi:ry="1.84375"
       d="m 253.5,282.81461 c 0,1.01827 -1.07731,1.84375 -2.40625,1.84375 -1.32894,0 -2.40625,-0.82548 -2.40625,-1.84375 0,-1.01828 1.07731,-1.84375 2.40625,-1.84375 1.32894,0 2.40625,0.82547 2.40625,1.84375 z m 8.45169,0 c 0,1.01827 1.07731,1.84375 2.40625,1.84375 1.32893,0 2.40625,-0.82548 2.40625,-1.84375 0,-1.01828 -1.07732,-1.84375 -2.40625,-1.84375 -1.32894,0 -2.40625,0.82547 -2.40625,1.84375 z"
       transform="matrix(0.57971464,0,0,1.1516038,106.59272,-42.029386)" />
    <path
       style="fill:#ffcc00;fill-opacity:1;fill-rule:nonzero;stroke:#000000;stroke-width:4.00000258;stroke-linecap:round;stroke-linejoin:bevel;stroke-miterlimit:4;stroke-dasharray:none;stroke-opacity:1"
       id="path1043"
       ry="5.2454648"
       rx="4.0023665"
       cy="259.28784"
       cx="210.74763" />
    <ellipse
       style="fill:#ffcc00;fill-opacity:1;fill-rule:nonzero;stroke:#000000;stroke-width:4.00000258;stroke-linecap:round;stroke-linejoin:bevel;stroke-miterlimit:4;stroke-dasharray:none;stroke-opacity:1"
       id="path1064"
       cx="294.85434"
       cy="260.56418"
       rx="4.1456633"
       ry="5.9691267" />
    <path
       style="fill:none;stroke:#000000;stroke-width:10.00000645;stroke-linecap:butt;stroke-linejoin:miter;stroke-opacity:1;stroke-miterlimit:4;stroke-dasharray:none"
       d="m 255.99999,304.18089 v 27.47747"
       id="path1070"
       inkscape:connector-curvature="0" />
    <path
       id="path1074"
       style="fill:none;stroke:#000000;stroke-width:10.00000645;stroke-linecap:butt;stroke-linejoin:miter;stroke-opacity:1;stroke-miterlimit:4;stroke-dasharray:none"
       d="m 229.625,304.18089 v 24.10247 m 13.625,-24.10247 v 26.35247 m -29.12706,-8.14474 v -18.23026 m 41.87705,27.59978 c -48.76302,0 -60.83852,-27.57716 -60.83852,-27.57716 h 60.9637 m 26.50017,-9e-5 v 24.10247 m -13.625,-24.10247 v 26.35247 m 29.12706,-8.14474 v -18.23026 m -41.87705,27.59978 c 48.76302,0 60.83852,-27.57716 60.83852,-27.57716 h -60.9637"
       inkscape:path-effect="#path-effect1077"
       inkscape:original-d="m 229.625,304.18089 v 24.10247 m 13.625,-24.10247 v 26.35247 m -29.12706,-8.14474 v -18.23026 m 41.87705,27.59978 c -48.76302,0 -60.83852,-27.57716 -60.83852,-27.57716 h 60.9637" />
    <ellipse
       style="fill:#ffcc00;fill-opacity:1;fill-rule:nonzero;stroke:#000000;stroke-width:4.23261118;stroke-linecap:round;stroke-linejoin:bevel;stroke-miterlimit:4;stroke-dasharray:none;stroke-opacity:1"
       id="path843"
       cx="211.77853"
       cy="259.61072"
       rx="4.3031135"
       ry="5.6289372" />
  </g>
</svg>
